<?xml version="1.0" encoding="UTF-8"?>
<svg width="1200" height="1600"
     xmlns="http://www.w3.org/2000/svg"
     viewBox="0 0 1200 1600">
    <defs>

            <marker id="arrowhead" markerWidth="8" markerHeight="8"
                    refX="4" refY="2.5" orient="auto">
                <polygon points="0 0, 5 2.5, 0 5" fill="black"/>
            </marker>
         
            <marker id="arrowhead-start" markerWidth="8" markerHeight="8"
                    refX="1" refY="2.5" orient="auto">
                <polygon points="5 0, 0 2.5, 5 5" fill="black"/>
            </marker>
        
</defs>
    <text x="50" y="50" font-family="Arial, sans-serif" font-size="18" text-anchor="start" font-weight="normal" fill="black">Concept 2: Interlocking U-Modules</text>
<text x="50" y="72" font-family="Arial, sans-serif" font-size="12" text-anchor="start" font-weight="normal" fill="black">Sheet Metal Bench - SendCutSend Fabrication</text>
<line x1="50" y1="82" x2="1150" y2="82" stroke="black" stroke-width="0.5" opacity="1.0"   />
<text x="50" y="100" font-family="Arial, sans-serif" font-size="12" text-anchor="start" font-weight="normal" fill="black">ORTHOGRAPHIC VIEWS</text>
<text x="150" y="125" font-family="Arial, sans-serif" font-size="10" text-anchor="start" font-weight="normal" fill="black">Top View</text>
<polygon points="100.0,145.0 142.0,145.0 142.0,169.0 100.0,169.0" fill="white" stroke="black" stroke-width="0.5" opacity="1.0"/>
<polygon points="100.0,145.0 106.0,145.0 106.0,169.0 100.0,169.0" fill="white" stroke="black" stroke-width="0.5" opacity="1.0"/>
<polygon points="136.0,145.0 142.0,145.0 142.0,169.0 136.0,169.0" fill="white" stroke="black" stroke-width="0.5" opacity="1.0"/>
<polygon points="142.0,145.0 184.0,145.0 184.0,169.0 142.0,169.0" fill="white" stroke="black" stroke-width="0.5" opacity="1.0"/>
<polygon points="142.0,145.0 148.0,145.0 148.0,169.0 142.0,169.0" fill="white" stroke="black" stroke-width="0.5" opacity="1.0"/>
<polygon points="178.0,145.0 184.0,145.0 184.0,169.0 178.0,169.0" fill="white" stroke="black" stroke-width="0.5" opacity="1.0"/>
<polygon points="184.0,145.0 226.0,145.0 226.0,169.0 184.0,169.0" fill="white" stroke="black" stroke-width="0.5" opacity="1.0"/>
<polygon points="184.0,145.0 190.0,145.0 190.0,169.0 184.0,169.0" fill="white" stroke="black" stroke-width="0.5" opacity="1.0"/>
<polygon points="220.0,145.0 226.0,145.0 226.0,169.0 220.0,169.0" fill="white" stroke="black" stroke-width="0.5" opacity="1.0"/>
<text x="500" y="125" font-family="Arial, sans-serif" font-size="10" text-anchor="start" font-weight="normal" fill="black">Front View</text>
<polygon points="450.0,367.0 492.0,367.0 492.0,366.8 450.0,366.8" fill="white" stroke="black" stroke-width="0.5" opacity="1.0"/>
<polygon points="450.0,395.0 456.0,395.0 456.0,394.8 450.0,394.8" fill="white" stroke="black" stroke-width="0.5" opacity="1.0"/>
<polygon points="486.0,395.0 492.0,395.0 492.0,394.8 486.0,394.8" fill="white" stroke="black" stroke-width="0.5" opacity="1.0"/>
<polygon points="492.0,367.0 534.0,367.0 534.0,366.8 492.0,366.8" fill="white" stroke="black" stroke-width="0.5" opacity="1.0"/>
<polygon points="492.0,395.0 498.0,395.0 498.0,394.8 492.0,394.8" fill="white" stroke="black" stroke-width="0.5" opacity="1.0"/>
<polygon points="528.0,395.0 534.0,395.0 534.0,394.8 528.0,394.8" fill="white" stroke="black" stroke-width="0.5" opacity="1.0"/>
<polygon points="534.0,367.0 576.0,367.0 576.0,366.8 534.0,366.8" fill="white" stroke="black" stroke-width="0.5" opacity="1.0"/>
<polygon points="534.0,395.0 540.0,395.0 540.0,394.8 534.0,394.8" fill="white" stroke="black" stroke-width="0.5" opacity="1.0"/>
<polygon points="570.0,395.0 576.0,395.0 576.0,394.8 570.0,394.8" fill="white" stroke="black" stroke-width="0.5" opacity="1.0"/>
<text x="850" y="125" font-family="Arial, sans-serif" font-size="10" text-anchor="start" font-weight="normal" fill="black">Right Side View</text>
<polygon points="800.0,367.0 824.0,367.0 824.0,366.8 800.0,366.8" fill="white" stroke="black" stroke-width="0.5" opacity="1.0"/>
<polygon points="800.0,395.0 824.0,395.0 824.0,394.8 800.0,394.8" fill="white" stroke="black" stroke-width="0.5" opacity="1.0"/>
<polygon points="800.0,395.0 824.0,395.0 824.0,394.8 800.0,394.8" fill="white" stroke="black" stroke-width="0.5" opacity="1.0"/>
<polygon points="800.0,367.0 824.0,367.0 824.0,366.8 800.0,366.8" fill="white" stroke="black" stroke-width="0.5" opacity="1.0"/>
<polygon points="800.0,395.0 824.0,395.0 824.0,394.8 800.0,394.8" fill="white" stroke="black" stroke-width="0.5" opacity="1.0"/>
<polygon points="800.0,395.0 824.0,395.0 824.0,394.8 800.0,394.8" fill="white" stroke="black" stroke-width="0.5" opacity="1.0"/>
<polygon points="800.0,367.0 824.0,367.0 824.0,366.8 800.0,366.8" fill="white" stroke="black" stroke-width="0.5" opacity="1.0"/>
<polygon points="800.0,395.0 824.0,395.0 824.0,394.8 800.0,394.8" fill="white" stroke="black" stroke-width="0.5" opacity="1.0"/>
<polygon points="800.0,395.0 824.0,395.0 824.0,394.8 800.0,394.8" fill="white" stroke="black" stroke-width="0.5" opacity="1.0"/>
<text x="50" y="415" font-family="Arial, sans-serif" font-size="12" text-anchor="start" font-weight="normal" fill="black">ISOMETRIC VIEW</text>
<polygon points="430.0520382004283,607.3503854594843 467.175144212722,585.9175563624743 467.175144212722,561.4225411341536 430.0520382004283,582.8553702311636" fill="white" stroke="black" stroke-width="0.5" opacity="1.0"/>
<polygon points="430.2288148957249,607.4524465504225 467.35192090801866,586.0196174534124 467.35192090801866,561.5246022250917 430.2288148957249,582.9574313221018" fill="white" stroke="black" stroke-width="0.5" opacity="1.0"/>
<polygon points="467.175144212722,585.9175563624743 467.175144212722,561.4225411341536 467.35192090801866,561.5246022250917 467.35192090801866,586.0196174534124" fill="white" stroke="black" stroke-width="0.5" opacity="1.0"/>
<polygon points="405.3033008588991,593.0618327281443 410.6066017177982,590.0 410.6066017177982,565.5049847716793 405.3033008588991,568.5668174998236" fill="white" stroke="black" stroke-width="0.5" opacity="1.0"/>
<polygon points="405.48007755419576,593.1638938190824 410.78337841309485,590.1020610909382 410.78337841309485,565.6070458626175 405.48007755419576,568.6688785907618" fill="white" stroke="black" stroke-width="0.5" opacity="1.0"/>
<polygon points="410.6066017177982,590.0 410.6066017177982,565.5049847716793 410.78337841309485,565.6070458626175 410.78337841309485,590.1020610909382" fill="white" stroke="black" stroke-width="0.5" opacity="1.0"/>
<polygon points="437.12310601229376,574.6908363592785 442.42640687119285,571.6290036311342 442.42640687119285,547.1339884028135 437.12310601229376,550.1958211309578" fill="white" stroke="black" stroke-width="0.5" opacity="1.0"/>
<polygon points="437.29988270759037,574.7928974502166 442.6031835664895,571.7310647220723 442.6031835664895,547.2360494937517 437.29988270759037,550.297882221896" fill="white" stroke="black" stroke-width="0.5" opacity="1.0"/>
<polygon points="442.42640687119285,571.6290036311342 442.42640687119285,547.1339884028135 442.6031835664895,547.2360494937517 442.6031835664895,571.7310647220723" fill="white" stroke="black" stroke-width="0.5" opacity="1.0"/>
<polygon points="467.175144212722,585.9175563624743 504.29825022501575,564.4847272654642 504.29825022501575,539.9897120371435 467.175144212722,561.4225411341536" fill="white" stroke="black" stroke-width="0.5" opacity="1.0"/>
<polygon points="467.35192090801866,586.0196174534124 504.4750269203124,564.5867883564024 504.4750269203124,540.0917731280816 467.35192090801866,561.5246022250917" fill="white" stroke="black" stroke-width="0.5" opacity="1.0"/>
<polygon points="504.29825022501575,564.4847272654642 504.29825022501575,539.9897120371435 504.4750269203124,540.0917731280816 504.4750269203124,564.5867883564024" fill="white" stroke="black" stroke-width="0.5" opacity="1.0"/>
<polygon points="442.42640687119285,571.6290036311342 447.72970773009195,568.5671709029899 447.72970773009195,544.0721556746693 442.42640687119285,547.1339884028135" fill="white" stroke="black" stroke-width="0.5" opacity="1.0"/>
<polygon points="442.6031835664895,571.7310647220723 447.9064844253886,568.6692319939281 447.9064844253886,544.1742167656074 442.6031835664895,547.2360494937517" fill="white" stroke="black" stroke-width="0.5" opacity="1.0"/>
<polygon points="447.72970773009195,568.5671709029899 447.72970773009195,544.0721556746693 447.9064844253886,544.1742167656074 447.9064844253886,568.6692319939281" fill="white" stroke="black" stroke-width="0.5" opacity="1.0"/>
<polygon points="474.2462120245875,553.2580072622684 479.5495128834866,550.1961745341241 479.5495128834866,525.7011593058035 474.2462120245875,528.7629920339477" fill="white" stroke="black" stroke-width="0.5" opacity="1.0"/>
<polygon points="474.42298871988413,553.3600683532065 479.7262895787832,550.2982356250623 479.7262895787832,525.8032203967416 474.42298871988413,528.8650531248859" fill="white" stroke="black" stroke-width="0.5" opacity="1.0"/>
<polygon points="479.5495128834866,550.1961745341241 479.5495128834866,525.7011593058035 479.7262895787832,525.8032203967416 479.7262895787832,550.2982356250623" fill="white" stroke="black" stroke-width="0.5" opacity="1.0"/>
<polygon points="504.29825022501575,564.4847272654642 541.4213562373095,543.0518981684542 541.4213562373095,518.5568829401334 504.29825022501575,539.9897120371435" fill="white" stroke="black" stroke-width="0.5" opacity="1.0"/>
<polygon points="504.4750269203124,564.5867883564024 541.5981329326062,543.1539592593923 541.5981329326062,518.6589440310715 504.4750269203124,540.0917731280816" fill="white" stroke="black" stroke-width="0.5" opacity="1.0"/>
<polygon points="541.4213562373095,543.0518981684542 541.4213562373095,518.5568829401334 541.5981329326062,518.6589440310715 541.5981329326062,543.1539592593923" fill="white" stroke="black" stroke-width="0.5" opacity="1.0"/>
<polygon points="479.5495128834866,550.1961745341241 484.8528137423857,547.1343418059798 484.8528137423857,522.6393265776592 479.5495128834866,525.7011593058035" fill="white" stroke="black" stroke-width="0.5" opacity="1.0"/>
<polygon points="479.7262895787832,550.2982356250623 485.0295904376824,547.236402896918 485.0295904376824,522.7413876685973 479.7262895787832,525.8032203967416" fill="white" stroke="black" stroke-width="0.5" opacity="1.0"/>
<polygon points="484.8528137423857,547.1343418059798 484.8528137423857,522.6393265776592 485.0295904376824,522.7413876685973 485.0295904376824,547.236402896918" fill="white" stroke="black" stroke-width="0.5" opacity="1.0"/>
<polygon points="511.3693180368813,531.8251781652584 516.6726188957804,528.7633454371141 516.6726188957804,504.2683302087934 511.3693180368813,507.33016293693765" fill="white" stroke="black" stroke-width="0.5" opacity="1.0"/>
<polygon points="511.5460947321779,531.9272392561966 516.8493955910769,528.8654065280522 516.8493955910769,504.3703912997315 511.5460947321779,507.4322240278758" fill="white" stroke="black" stroke-width="0.5" opacity="1.0"/>
<polygon points="516.6726188957804,528.7633454371141 516.6726188957804,504.2683302087934 516.8493955910769,504.3703912997315 516.8493955910769,528.8654065280522" fill="white" stroke="black" stroke-width="0.5" opacity="1.0"/>
<text x="650" y="790" font-family="Arial, sans-serif" font-size="10" text-anchor="start" font-weight="normal" fill="black">Materials</text>
<text x="650" y="806" font-family="Arial, sans-serif" font-size="9" text-anchor="start" font-weight="normal" fill="black">Module 1 - Seat: 304 Stainless Steel 0.1"</text>
<text x="650" y="820" font-family="Arial, sans-serif" font-size="9" text-anchor="start" font-weight="normal" fill="black">Module 1 - Left Side: 304 Stainless Steel 0.1"</text>
<text x="650" y="834" font-family="Arial, sans-serif" font-size="9" text-anchor="start" font-weight="normal" fill="black">Module 1 - Right Side: 304 Stainless Steel 0.1"</text>
<text x="650" y="848" font-family="Arial, sans-serif" font-size="9" text-anchor="start" font-weight="normal" fill="black">Module 2 - Seat: 304 Stainless Steel 0.1"</text>
<text x="650" y="862" font-family="Arial, sans-serif" font-size="9" text-anchor="start" font-weight="normal" fill="black">Module 2 - Left Side: 304 Stainless Steel 0.1"</text>
<text x="650" y="876" font-family="Arial, sans-serif" font-size="9" text-anchor="start" font-weight="normal" fill="black">Module 2 - Right Side: 304 Stainless Steel 0.1"</text>
<text x="650" y="890" font-family="Arial, sans-serif" font-size="9" text-anchor="start" font-weight="normal" fill="black">Module 3 - Seat: 304 Stainless Steel 0.1"</text>
<text x="650" y="904" font-family="Arial, sans-serif" font-size="9" text-anchor="start" font-weight="normal" fill="black">Module 3 - Left Side: 304 Stainless Steel 0.1"</text>
<text x="650" y="918" font-family="Arial, sans-serif" font-size="9" text-anchor="start" font-weight="normal" fill="black">Module 3 - Right Side: 304 Stainless Steel 0.1"</text>
<text x="50" y="760" font-family="Arial, sans-serif" font-size="12" text-anchor="start" font-weight="normal" fill="black">EXPLODED ASSEMBLY</text>
<polygon points="394.8734758363975,932.0402283627939 431.9965818486913,910.6073992657838 431.9965818486913,886.1123840374631 394.8734758363975,907.5452131344732" fill="white" stroke="black" stroke-width="0.5" opacity="1.0"/>
<polygon points="431.81980515339467,910.5053381748456 431.81980515339467,886.010322946525 431.9965818486913,886.1123840374631 431.9965818486913,910.6073992657838" fill="white" stroke="black" stroke-width="0.5" opacity="1.0"/>
<text x="441.9965818486913" y="886.1123840374631" font-family="Arial, sans-serif" font-size="8" text-anchor="start" font-weight="normal" fill="black">Module 1 - Seat</text>
<polygon points="378.9635732597002,922.8547301783609 384.26687411859933,919.7928974502166 384.26687411859933,895.297882221896 378.9635732597002,898.3597149500403" fill="white" stroke="black" stroke-width="0.5" opacity="1.0"/>
<polygon points="384.09009742330267,919.6908363592785 384.09009742330267,895.1958211309578 384.26687411859933,895.297882221896 384.26687411859933,919.7928974502166" fill="white" stroke="black" stroke-width="0.5" opacity="1.0"/>
<text x="394.26687411859933" y="895.297882221896" font-family="Arial, sans-serif" font-size="8" text-anchor="start" font-weight="normal" fill="black">Module 1 - Left Side</text>
<polygon points="419.6222131779267,909.5867883564024 424.9255140368258,906.524955628258 424.9255140368258,882.0299403999373 419.6222131779267,885.0917731280816" fill="white" stroke="black" stroke-width="0.5" opacity="1.0"/>
<polygon points="424.7487373415292,906.4228945373198 424.7487373415292,881.9278793089992 424.9255140368258,882.0299403999373 424.9255140368258,906.524955628258" fill="white" stroke="black" stroke-width="0.5" opacity="1.0"/>
<text x="434.9255140368258" y="882.0299403999373" font-family="Arial, sans-serif" font-size="8" text-anchor="start" font-weight="normal" fill="black">Module 1 - Right Side</text>
<polygon points="458.5130861431868,925.9165629065053 495.63619215548056,904.4837338094952 495.63619215548056,879.9887185811745 458.5130861431868,901.4215476781845" fill="white" stroke="black" stroke-width="0.5" opacity="1.0"/>
<polygon points="495.4594154601839,904.3816727185571 495.4594154601839,879.8866574902363 495.63619215548056,879.9887185811745 495.63619215548056,904.4837338094952" fill="white" stroke="black" stroke-width="0.5" opacity="1.0"/>
<text x="505.63619215548056" y="879.9887185811745" font-family="Arial, sans-serif" font-size="8" text-anchor="start" font-weight="normal" fill="black">Module 2 - Seat</text>
<polygon points="442.6031835664895,916.7310647220723 447.9064844253886,913.6692319939281 447.9064844253886,889.1742167656074 442.6031835664895,892.2360494937517" fill="white" stroke="black" stroke-width="0.5" opacity="1.0"/>
<polygon points="447.72970773009195,913.5671709029899 447.72970773009195,889.0721556746693 447.9064844253886,889.1742167656074 447.9064844253886,913.6692319939281" fill="white" stroke="black" stroke-width="0.5" opacity="1.0"/>
<text x="457.9064844253886" y="889.1742167656074" font-family="Arial, sans-serif" font-size="8" text-anchor="start" font-weight="normal" fill="black">Module 2 - Left Side</text>
<polygon points="483.261823484716,903.4631229001137 488.5651243436151,900.4012901719694 488.5651243436151,875.9062749436488 483.261823484716,878.9681076717931" fill="white" stroke="black" stroke-width="0.5" opacity="1.0"/>
<polygon points="488.3883476483185,900.2992290810313 488.3883476483185,875.8042138527106 488.5651243436151,875.9062749436488 488.5651243436151,900.4012901719694" fill="white" stroke="black" stroke-width="0.5" opacity="1.0"/>
<text x="498.5651243436151" y="875.9062749436488" font-family="Arial, sans-serif" font-size="8" text-anchor="start" font-weight="normal" fill="black">Module 2 - Right Side</text>
<polygon points="522.152696449976,919.7928974502166 559.2758024622699,898.3600683532065 559.2758024622699,873.8650531248859 522.152696449976,895.297882221896" fill="white" stroke="black" stroke-width="0.5" opacity="1.0"/>
<polygon points="559.0990257669732,898.2580072622684 559.0990257669732,873.7629920339477 559.2758024622699,873.8650531248859 559.2758024622699,898.3600683532065" fill="white" stroke="black" stroke-width="0.5" opacity="1.0"/>
<text x="569.2758024622699" y="873.8650531248859" font-family="Arial, sans-serif" font-size="8" text-anchor="start" font-weight="normal" fill="black">Module 3 - Seat</text>
<polygon points="506.24279387327874,910.6073992657838 511.5460947321779,907.5455665376395 511.5460947321779,883.0505513093188 506.24279387327874,886.1123840374631" fill="white" stroke="black" stroke-width="0.5" opacity="1.0"/>
<polygon points="511.3693180368813,907.4435054467014 511.3693180368813,882.9484902183807 511.5460947321779,883.0505513093188 511.5460947321779,907.5455665376395" fill="white" stroke="black" stroke-width="0.5" opacity="1.0"/>
<text x="521.5460947321778" y="883.0505513093188" font-family="Arial, sans-serif" font-size="8" text-anchor="start" font-weight="normal" fill="black">Module 3 - Left Side</text>
<polygon points="546.9014337915053,897.3394574438252 552.2047346504044,894.2776247156809 552.2047346504044,869.7826094873602 546.9014337915053,872.8444422155045" fill="white" stroke="black" stroke-width="0.5" opacity="1.0"/>
<polygon points="552.0279579551077,894.1755636247427 552.0279579551077,869.6805483964221 552.2047346504044,869.7826094873602 552.2047346504044,894.2776247156809" fill="white" stroke="black" stroke-width="0.5" opacity="1.0"/>
<text x="562.2047346504044" y="869.7826094873602" font-family="Arial, sans-serif" font-size="8" text-anchor="start" font-weight="normal" fill="black">Module 3 - Right Side</text>
<line x1="431.9965818486913" y1="886.1123840374631" x2="378.9635732597002" y2="922.8547301783609" stroke="black" stroke-width="0.5" opacity="0.5" stroke-dasharray="2,2"  />
<line x1="384.26687411859933" y1="895.297882221896" x2="419.6222131779267" y2="909.5867883564024" stroke="black" stroke-width="0.5" opacity="0.5" stroke-dasharray="2,2"  />
<line x1="424.9255140368258" y1="882.0299403999373" x2="458.5130861431868" y2="925.9165629065053" stroke="black" stroke-width="0.5" opacity="0.5" stroke-dasharray="2,2"  />
<line x1="495.63619215548056" y1="879.9887185811745" x2="442.6031835664895" y2="916.7310647220723" stroke="black" stroke-width="0.5" opacity="0.5" stroke-dasharray="2,2"  />
<line x1="447.9064844253886" y1="889.1742167656074" x2="483.261823484716" y2="903.4631229001137" stroke="black" stroke-width="0.5" opacity="0.5" stroke-dasharray="2,2"  />
<line x1="488.5651243436151" y1="875.9062749436488" x2="522.152696449976" y2="919.7928974502166" stroke="black" stroke-width="0.5" opacity="0.5" stroke-dasharray="2,2"  />
<line x1="559.2758024622699" y1="873.8650531248859" x2="506.24279387327874" y2="910.6073992657838" stroke="black" stroke-width="0.5" opacity="0.5" stroke-dasharray="2,2"  />
<line x1="511.5460947321779" y1="883.0505513093188" x2="546.9014337915053" y2="897.3394574438252" stroke="black" stroke-width="0.5" opacity="0.5" stroke-dasharray="2,2"  />
<text x="50" y="1105" font-family="Arial, sans-serif" font-size="12" text-anchor="start" font-weight="normal" fill="black">FLAT PATTERNS</text>
<text x="50" y="1121" font-family="Arial, sans-serif" font-size="9" text-anchor="start" font-weight="normal" fill="black">For SendCutSend DXF Export</text>
<rect x="100" y="1140" width="31.5" height="18.0" fill="white" stroke="black" stroke-width="1" opacity="1.0"/>
<line x1="100" y1="1140" x2="100.0" y2="1125.0" stroke="black" stroke-width="0.3" opacity="1.0"   />
<line x1="131.5" y1="1140" x2="131.5" y2="1125.0" stroke="black" stroke-width="0.3" opacity="1.0"   />
<line x1="100.0" y1="1125.0" x2="131.5" y2="1125.0" stroke="black" stroke-width="0.5" opacity="1.0"  marker-start="url(#arrowhead-start)" marker-end="url(#arrowhead)"/>
<text x="115.75" y="1122.0" font-family="Arial, sans-serif" font-size="8" text-anchor="middle" fill="black" transform="rotate(0.0 115.75 1125.0)">21.0"</text>
<line x1="100" y1="1140" x2="115.0" y2="1140.0" stroke="black" stroke-width="0.3" opacity="1.0"   />
<line x1="100" y1="1158.0" x2="115.0" y2="1158.0" stroke="black" stroke-width="0.3" opacity="1.0"   />
<line x1="115.0" y1="1140.0" x2="115.0" y2="1158.0" stroke="black" stroke-width="0.5" opacity="1.0"  marker-start="url(#arrowhead-start)" marker-end="url(#arrowhead)"/>
<text x="115.0" y="1146.0" font-family="Arial, sans-serif" font-size="8" text-anchor="middle" fill="black" transform="rotate(90.0 115.0 1149.0)">12.0"</text>
<text x="115.75" y="1115" font-family="Arial, sans-serif" font-size="10" text-anchor="middle" font-weight="normal" fill="black">Module 1 - Seat</text>
<text x="115.75" y="1126" font-family="Arial, sans-serif" font-size="8" text-anchor="middle" font-weight="normal" fill="black">304 Stainless Steel - 0.1" thick</text>
<rect x="100" y="1238.0" width="4.5" height="18.0" fill="white" stroke="black" stroke-width="1" opacity="1.0"/>
<line x1="100" y1="1238.0" x2="100.0" y2="1223.0" stroke="black" stroke-width="0.3" opacity="1.0"   />
<line x1="104.5" y1="1238.0" x2="104.5" y2="1223.0" stroke="black" stroke-width="0.3" opacity="1.0"   />
<line x1="100.0" y1="1223.0" x2="104.5" y2="1223.0" stroke="black" stroke-width="0.5" opacity="1.0"  marker-start="url(#arrowhead-start)" marker-end="url(#arrowhead)"/>
<text x="102.25" y="1220.0" font-family="Arial, sans-serif" font-size="8" text-anchor="middle" fill="black" transform="rotate(0.0 102.25 1223.0)">3.0"</text>
<line x1="100" y1="1238.0" x2="115.0" y2="1238.0" stroke="black" stroke-width="0.3" opacity="1.0"   />
<line x1="100" y1="1256.0" x2="115.0" y2="1256.0" stroke="black" stroke-width="0.3" opacity="1.0"   />
<line x1="115.0" y1="1238.0" x2="115.0" y2="1256.0" stroke="black" stroke-width="0.5" opacity="1.0"  marker-start="url(#arrowhead-start)" marker-end="url(#arrowhead)"/>
<text x="115.0" y="1244.0" font-family="Arial, sans-serif" font-size="8" text-anchor="middle" fill="black" transform="rotate(90.0 115.0 1247.0)">12.0"</text>
<text x="102.25" y="1213.0" font-family="Arial, sans-serif" font-size="10" text-anchor="middle" font-weight="normal" fill="black">Module 1 - Left Side</text>
<text x="102.25" y="1224.0" font-family="Arial, sans-serif" font-size="8" text-anchor="middle" font-weight="normal" fill="black">304 Stainless Steel - 0.1" thick</text>
<rect x="100" y="1336.0" width="4.5" height="18.0" fill="white" stroke="black" stroke-width="1" opacity="1.0"/>
<line x1="100" y1="1336.0" x2="100.0" y2="1321.0" stroke="black" stroke-width="0.3" opacity="1.0"   />
<line x1="104.5" y1="1336.0" x2="104.5" y2="1321.0" stroke="black" stroke-width="0.3" opacity="1.0"   />
<line x1="100.0" y1="1321.0" x2="104.5" y2="1321.0" stroke="black" stroke-width="0.5" opacity="1.0"  marker-start="url(#arrowhead-start)" marker-end="url(#arrowhead)"/>
<text x="102.25" y="1318.0" font-family="Arial, sans-serif" font-size="8" text-anchor="middle" fill="black" transform="rotate(0.0 102.25 1321.0)">3.0"</text>
<line x1="100" y1="1336.0" x2="115.0" y2="1336.0" stroke="black" stroke-width="0.3" opacity="1.0"   />
<line x1="100" y1="1354.0" x2="115.0" y2="1354.0" stroke="black" stroke-width="0.3" opacity="1.0"   />
<line x1="115.0" y1="1336.0" x2="115.0" y2="1354.0" stroke="black" stroke-width="0.5" opacity="1.0"  marker-start="url(#arrowhead-start)" marker-end="url(#arrowhead)"/>
<text x="115.0" y="1342.0" font-family="Arial, sans-serif" font-size="8" text-anchor="middle" fill="black" transform="rotate(90.0 115.0 1345.0)">12.0"</text>
<text x="102.25" y="1311.0" font-family="Arial, sans-serif" font-size="10" text-anchor="middle" font-weight="normal" fill="black">Module 1 - Right Side</text>
<text x="102.25" y="1322.0" font-family="Arial, sans-serif" font-size="8" text-anchor="middle" font-weight="normal" fill="black">304 Stainless Steel - 0.1" thick</text>
<rect x="500" y="1140" width="31.5" height="18.0" fill="white" stroke="black" stroke-width="1" opacity="1.0"/>
<line x1="500" y1="1140" x2="500.0" y2="1125.0" stroke="black" stroke-width="0.3" opacity="1.0"   />
<line x1="531.5" y1="1140" x2="531.5" y2="1125.0" stroke="black" stroke-width="0.3" opacity="1.0"   />
<line x1="500.0" y1="1125.0" x2="531.5" y2="1125.0" stroke="black" stroke-width="0.5" opacity="1.0"  marker-start="url(#arrowhead-start)" marker-end="url(#arrowhead)"/>
<text x="515.75" y="1122.0" font-family="Arial, sans-serif" font-size="8" text-anchor="middle" fill="black" transform="rotate(0.0 515.75 1125.0)">21.0"</text>
<line x1="500" y1="1140" x2="515.0" y2="1140.0" stroke="black" stroke-width="0.3" opacity="1.0"   />
<line x1="500" y1="1158.0" x2="515.0" y2="1158.0" stroke="black" stroke-width="0.3" opacity="1.0"   />
<line x1="515.0" y1="1140.0" x2="515.0" y2="1158.0" stroke="black" stroke-width="0.5" opacity="1.0"  marker-start="url(#arrowhead-start)" marker-end="url(#arrowhead)"/>
<text x="515.0" y="1146.0" font-family="Arial, sans-serif" font-size="8" text-anchor="middle" fill="black" transform="rotate(90.0 515.0 1149.0)">12.0"</text>
<text x="515.75" y="1115" font-family="Arial, sans-serif" font-size="10" text-anchor="middle" font-weight="normal" fill="black">Module 2 - Seat</text>
<text x="515.75" y="1126" font-family="Arial, sans-serif" font-size="8" text-anchor="middle" font-weight="normal" fill="black">304 Stainless Steel - 0.1" thick</text>
<rect x="500" y="1238.0" width="4.5" height="18.0" fill="white" stroke="black" stroke-width="1" opacity="1.0"/>
<line x1="500" y1="1238.0" x2="500.0" y2="1223.0" stroke="black" stroke-width="0.3" opacity="1.0"   />
<line x1="504.5" y1="1238.0" x2="504.5" y2="1223.0" stroke="black" stroke-width="0.3" opacity="1.0"   />
<line x1="500.0" y1="1223.0" x2="504.5" y2="1223.0" stroke="black" stroke-width="0.5" opacity="1.0"  marker-start="url(#arrowhead-start)" marker-end="url(#arrowhead)"/>
<text x="502.25" y="1220.0" font-family="Arial, sans-serif" font-size="8" text-anchor="middle" fill="black" transform="rotate(0.0 502.25 1223.0)">3.0"</text>
<line x1="500" y1="1238.0" x2="515.0" y2="1238.0" stroke="black" stroke-width="0.3" opacity="1.0"   />
<line x1="500" y1="1256.0" x2="515.0" y2="1256.0" stroke="black" stroke-width="0.3" opacity="1.0"   />
<line x1="515.0" y1="1238.0" x2="515.0" y2="1256.0" stroke="black" stroke-width="0.5" opacity="1.0"  marker-start="url(#arrowhead-start)" marker-end="url(#arrowhead)"/>
<text x="515.0" y="1244.0" font-family="Arial, sans-serif" font-size="8" text-anchor="middle" fill="black" transform="rotate(90.0 515.0 1247.0)">12.0"</text>
<text x="502.25" y="1213.0" font-family="Arial, sans-serif" font-size="10" text-anchor="middle" font-weight="normal" fill="black">Module 2 - Left Side</text>
<text x="502.25" y="1224.0" font-family="Arial, sans-serif" font-size="8" text-anchor="middle" font-weight="normal" fill="black">304 Stainless Steel - 0.1" thick</text>
<rect x="500" y="1336.0" width="4.5" height="18.0" fill="white" stroke="black" stroke-width="1" opacity="1.0"/>
<line x1="500" y1="1336.0" x2="500.0" y2="1321.0" stroke="black" stroke-width="0.3" opacity="1.0"   />
<line x1="504.5" y1="1336.0" x2="504.5" y2="1321.0" stroke="black" stroke-width="0.3" opacity="1.0"   />
<line x1="500.0" y1="1321.0" x2="504.5" y2="1321.0" stroke="black" stroke-width="0.5" opacity="1.0"  marker-start="url(#arrowhead-start)" marker-end="url(#arrowhead)"/>
<text x="502.25" y="1318.0" font-family="Arial, sans-serif" font-size="8" text-anchor="middle" fill="black" transform="rotate(0.0 502.25 1321.0)">3.0"</text>
<line x1="500" y1="1336.0" x2="515.0" y2="1336.0" stroke="black" stroke-width="0.3" opacity="1.0"   />
<line x1="500" y1="1354.0" x2="515.0" y2="1354.0" stroke="black" stroke-width="0.3" opacity="1.0"   />
<line x1="515.0" y1="1336.0" x2="515.0" y2="1354.0" stroke="black" stroke-width="0.5" opacity="1.0"  marker-start="url(#arrowhead-start)" marker-end="url(#arrowhead)"/>
<text x="515.0" y="1342.0" font-family="Arial, sans-serif" font-size="8" text-anchor="middle" fill="black" transform="rotate(90.0 515.0 1345.0)">12.0"</text>
<text x="502.25" y="1311.0" font-family="Arial, sans-serif" font-size="10" text-anchor="middle" font-weight="normal" fill="black">Module 2 - Right Side</text>
<text x="502.25" y="1322.0" font-family="Arial, sans-serif" font-size="8" text-anchor="middle" font-weight="normal" fill="black">304 Stainless Steel - 0.1" thick</text>
<rect x="900" y="1140" width="31.5" height="18.0" fill="white" stroke="black" stroke-width="1" opacity="1.0"/>
<line x1="900" y1="1140" x2="900.0" y2="1125.0" stroke="black" stroke-width="0.3" opacity="1.0"   />
<line x1="931.5" y1="1140" x2="931.5" y2="1125.0" stroke="black" stroke-width="0.3" opacity="1.0"   />
<line x1="900.0" y1="1125.0" x2="931.5" y2="1125.0" stroke="black" stroke-width="0.5" opacity="1.0"  marker-start="url(#arrowhead-start)" marker-end="url(#arrowhead)"/>
<text x="915.75" y="1122.0" font-family="Arial, sans-serif" font-size="8" text-anchor="middle" fill="black" transform="rotate(0.0 915.75 1125.0)">21.0"</text>
<line x1="900" y1="1140" x2="915.0" y2="1140.0" stroke="black" stroke-width="0.3" opacity="1.0"   />
<line x1="900" y1="1158.0" x2="915.0" y2="1158.0" stroke="black" stroke-width="0.3" opacity="1.0"   />
<line x1="915.0" y1="1140.0" x2="915.0" y2="1158.0" stroke="black" stroke-width="0.5" opacity="1.0"  marker-start="url(#arrowhead-start)" marker-end="url(#arrowhead)"/>
<text x="915.0" y="1146.0" font-family="Arial, sans-serif" font-size="8" text-anchor="middle" fill="black" transform="rotate(90.0 915.0 1149.0)">12.0"</text>
<text x="915.75" y="1115" font-family="Arial, sans-serif" font-size="10" text-anchor="middle" font-weight="normal" fill="black">Module 3 - Seat</text>
<text x="915.75" y="1126" font-family="Arial, sans-serif" font-size="8" text-anchor="middle" font-weight="normal" fill="black">304 Stainless Steel - 0.1" thick</text>
<rect x="900" y="1238.0" width="4.5" height="18.0" fill="white" stroke="black" stroke-width="1" opacity="1.0"/>
<line x1="900" y1="1238.0" x2="900.0" y2="1223.0" stroke="black" stroke-width="0.3" opacity="1.0"   />
<line x1="904.5" y1="1238.0" x2="904.5" y2="1223.0" stroke="black" stroke-width="0.3" opacity="1.0"   />
<line x1="900.0" y1="1223.0" x2="904.5" y2="1223.0" stroke="black" stroke-width="0.5" opacity="1.0"  marker-start="url(#arrowhead-start)" marker-end="url(#arrowhead)"/>
<text x="902.25" y="1220.0" font-family="Arial, sans-serif" font-size="8" text-anchor="middle" fill="black" transform="rotate(0.0 902.25 1223.0)">3.0"</text>
<line x1="900" y1="1238.0" x2="915.0" y2="1238.0" stroke="black" stroke-width="0.3" opacity="1.0"   />
<line x1="900" y1="1256.0" x2="915.0" y2="1256.0" stroke="black" stroke-width="0.3" opacity="1.0"   />
<line x1="915.0" y1="1238.0" x2="915.0" y2="1256.0" stroke="black" stroke-width="0.5" opacity="1.0"  marker-start="url(#arrowhead-start)" marker-end="url(#arrowhead)"/>
<text x="915.0" y="1244.0" font-family="Arial, sans-serif" font-size="8" text-anchor="middle" fill="black" transform="rotate(90.0 915.0 1247.0)">12.0"</text>
<text x="902.25" y="1213.0" font-family="Arial, sans-serif" font-size="10" text-anchor="middle" font-weight="normal" fill="black">Module 3 - Left Side</text>
<text x="902.25" y="1224.0" font-family="Arial, sans-serif" font-size="8" text-anchor="middle" font-weight="normal" fill="black">304 Stainless Steel - 0.1" thick</text>
<rect x="900" y="1336.0" width="4.5" height="18.0" fill="white" stroke="black" stroke-width="1" opacity="1.0"/>
<line x1="900" y1="1336.0" x2="900.0" y2="1321.0" stroke="black" stroke-width="0.3" opacity="1.0"   />
<line x1="904.5" y1="1336.0" x2="904.5" y2="1321.0" stroke="black" stroke-width="0.3" opacity="1.0"   />
<line x1="900.0" y1="1321.0" x2="904.5" y2="1321.0" stroke="black" stroke-width="0.5" opacity="1.0"  marker-start="url(#arrowhead-start)" marker-end="url(#arrowhead)"/>
<text x="902.25" y="1318.0" font-family="Arial, sans-serif" font-size="8" text-anchor="middle" fill="black" transform="rotate(0.0 902.25 1321.0)">3.0"</text>
<line x1="900" y1="1336.0" x2="915.0" y2="1336.0" stroke="black" stroke-width="0.3" opacity="1.0"   />
<line x1="900" y1="1354.0" x2="915.0" y2="1354.0" stroke="black" stroke-width="0.3" opacity="1.0"   />
<line x1="915.0" y1="1336.0" x2="915.0" y2="1354.0" stroke="black" stroke-width="0.5" opacity="1.0"  marker-start="url(#arrowhead-start)" marker-end="url(#arrowhead)"/>
<text x="915.0" y="1342.0" font-family="Arial, sans-serif" font-size="8" text-anchor="middle" fill="black" transform="rotate(90.0 915.0 1345.0)">12.0"</text>
<text x="902.25" y="1311.0" font-family="Arial, sans-serif" font-size="10" text-anchor="middle" font-weight="normal" fill="black">Module 3 - Right Side</text>
<text x="902.25" y="1322.0" font-family="Arial, sans-serif" font-size="8" text-anchor="middle" font-weight="normal" fill="black">304 Stainless Steel - 0.1" thick</text>
</svg>